<svg width="34" height="25" viewBox="0 0 34 25" fill="none" xmlns="http://www.w3.org/2000/svg">
<path d="M0 3.46471C0 1.82734 1.3293 0.5 2.96907 0.5H30.6804C32.3202 0.5 33.6495 1.82734 33.6495 3.46471V21.5353C33.6495 23.1727 32.3202 24.5 30.6804 24.5H2.96907C1.3293 24.5 0 23.1727 0 21.5353V3.46471Z" fill="#0A17A7"/>
<path fill-rule="evenodd" clip-rule="evenodd" d="M0 8.45598H7.99954L0.025137 3.07717C0.177812 1.90943 1.01103 0.95531 2.11432 0.624697L12.7935 7.82787V0.5H20.7971V7.82824L31.4944 0.612801C32.6064 0.92866 33.4524 1.87553 33.6194 3.04111L25.5915 8.45598H33.6029V16.4596H25.5905L33.6294 21.8819C33.4929 23.0522 32.6739 24.0145 31.5803 24.3614L20.7971 17.088V24.5H12.7935V17.0884L2.02979 24.3486C0.944621 23.9875 0.138033 23.0179 0.0160304 21.8452L8.00057 16.4596H0V8.45598Z" fill="white"/>
<path fill-rule="evenodd" clip-rule="evenodd" d="M0 14.9H14.4212V24.5H19.2283V14.9H33.6495V10.1H19.2283V0.5H14.4212V10.1H0V14.9Z" fill="#E6273E"/>
<path fill-rule="evenodd" clip-rule="evenodd" d="M0.829868 23.5927C0.676539 23.4339 0.540799 23.258 0.425781 23.0681L10.4958 16.39C10.6478 16.2892 10.8528 16.3307 10.9536 16.4827C11.0544 16.6347 11.0129 16.8397 10.8609 16.9405L0.829868 23.5927Z" fill="#FF304D"/>
<path fill-rule="evenodd" clip-rule="evenodd" d="M0.93678 1.30225L10.3689 7.68922C10.5195 7.79121 10.5593 7.99656 10.4578 8.14789C10.3563 8.29922 10.152 8.33922 10.0014 8.23724L0.505859 1.80736C0.630383 1.62322 0.775079 1.45379 0.93678 1.30225Z" fill="#FF304D"/>
<path fill-rule="evenodd" clip-rule="evenodd" d="M33.1726 23.1475C33.0522 23.3328 32.9116 23.5039 32.7539 23.6575L23.0318 17.1809C22.8802 17.0799 22.8401 16.8766 22.9423 16.7268C23.0445 16.577 23.2501 16.5374 23.4017 16.6384L33.1726 23.1475Z" fill="#FF304D"/>
<path fill-rule="evenodd" clip-rule="evenodd" d="M33.1527 1.823L23.3955 8.23992C23.2437 8.33973 23.0398 8.29765 22.9399 8.14593C22.8401 7.9942 22.8822 7.79028 23.0339 7.69047L32.7259 1.31641C32.8862 1.46861 33.0295 1.63852 33.1527 1.823Z" fill="#FF304D"/>
</svg>
