<svg width="17" height="16" viewBox="0 0 17 16" fill="none" xmlns="http://www.w3.org/2000/svg">
<path d="M1.65513 10.4941L0.690164 14.3267C0.656876 14.4668 0.658017 14.612 0.693503 14.7516C0.72899 14.8913 0.797926 15.0218 0.895276 15.1338C0.992625 15.2458 1.11593 15.3364 1.25618 15.3989C1.39643 15.4614 1.55008 15.4943 1.70591 15.4952C1.77852 15.5019 1.85169 15.5019 1.9243 15.4952L6.11427 14.6071L14.159 7.23174L9.66939 3.10938L1.65513 10.4941Z" fill="white"/>
<path d="M16.6883 3.53923L13.6918 0.781642C13.4948 0.601261 13.2282 0.5 12.9503 0.5C12.6724 0.5 12.4058 0.601261 12.2088 0.781642L10.543 2.31468L15.0275 6.44171L16.6933 4.90868C16.7908 4.81851 16.868 4.71154 16.9205 4.59388C16.9731 4.47622 16.9998 4.35018 16.9994 4.22299C16.9989 4.09579 16.9712 3.96993 16.9178 3.8526C16.8644 3.73527 16.7864 3.62879 16.6883 3.53923V3.53923Z" fill="white"/>
</svg>
